<svg width="301" height="112" viewBox="0 0 301 112" fill="none" xmlns="http://www.w3.org/2000/svg">
<g filter="url(#filter0_d_427_8)">
<path d="M14.36 79.84C11.96 79.84 9.90667 79.4133 8.2 78.56C5.90667 77.3867 4.76 75.7333 4.76 73.6C4.76 71.3067 6.01333 69.52 8.52 68.24C10.4933 67.2267 12.76 66.72 15.32 66.72C15.8 66.72 16.04 66.8 16.04 66.96C16.04 67.1733 15.8 67.28 15.32 67.28C13.1333 67.28 11.2667 67.7067 9.72 68.56C7.69333 69.6267 6.68 71.1467 6.68 73.12C6.68 74.8267 7.45333 76.16 9 77.12C10.3867 77.92 11.9333 78.32 13.64 78.32C18.3867 78.32 22.76 76.1333 26.76 71.76C28.0933 70.32 29.4533 68.5333 30.84 66.4C32.2267 64.2667 33.64 61.7867 35.08 58.96C35.6667 57.7333 36.4933 56 37.56 53.76C38.68 51.4667 39.9867 48.6133 41.48 45.2C42.76 42.2667 43.96 39.68 45.08 37.44C46.2 35.2 47.2133 33.2533 48.12 31.6L42.52 30.4C41.9867 32.5867 41.3467 34.9867 40.6 37.6C39.8533 40.2133 38.9467 43.0133 37.88 46C38.4667 45.6267 38.9733 45.44 39.4 45.44C39.7733 45.44 39.96 45.68 39.96 46.16C39.96 47.5467 38.4133 49.6267 35.32 52.4C34.4133 54.5333 33.3733 56.6667 32.2 58.8C31.08 60.88 29.8267 62.9333 28.44 64.96C24.5467 70.7733 21.1867 73.68 18.36 73.68C17.3467 73.68 16.84 73.4133 16.84 72.88C16.84 72.6133 16.9733 72.48 17.24 72.48C17.4 72.48 17.6133 72.5067 17.88 72.56C18.1467 72.6133 18.3333 72.64 18.44 72.64C21.2133 72.64 24.4667 69.8133 28.2 64.16C30.76 60.32 32.92 56.24 34.68 51.92C34.04 49.7333 33.72 48.0533 33.72 46.88C33.72 45.12 34.04 44.24 34.68 44.24C35.4267 44.24 36.0933 45.0133 36.68 46.56C37.4267 45.0133 38.2267 42.88 39.08 40.16C39.9333 37.44 40.7867 34.1067 41.64 30.16C33.32 28.4 26.9467 27.52 22.52 27.52C13.5067 27.52 9 30.64 9 36.88C9 40.9867 11.3733 44.6933 16.12 48C16.3333 48.16 16.44 48.2933 16.44 48.4C16.44 48.56 16.3333 48.64 16.12 48.64C16.0667 48.64 15.9333 48.5867 15.72 48.48C9.42667 44.9067 6.28 40.6133 6.28 35.6C6.28 32.0267 7.98667 29.4133 11.4 27.76C14.0133 26.5333 17.2933 25.92 21.24 25.92C25.9333 25.92 32.84 26.8 41.96 28.56C42.12 27.4933 42.3067 26.3733 42.52 25.2C42.7867 24.0267 43.0533 22.8267 43.32 21.6C43.48 21.6533 43.56 22.2133 43.56 23.28C43.56 24.6667 43.32 26.48 42.84 28.72L49.08 29.92C54.0933 21.5467 59.5867 17.36 65.56 17.36C69.1867 17.36 71 18.88 71 21.92C71 22.5067 70.8933 22.8 70.68 22.8C70.4667 22.8 70.36 22.56 70.36 22.08C70.36 19.8933 68.8933 18.8 65.96 18.8C61.9067 18.8 57.64 22.7733 53.16 30.72C56.0933 31.2533 58.6267 31.6533 60.76 31.92C62.9467 32.1867 64.76 32.32 66.2 32.32C71.64 32.32 74.36 30.96 74.36 28.24C74.36 27.8133 74.28 27.4667 74.12 27.2C73.96 26.88 73.88 26.6667 73.88 26.56C73.88 26.4 73.9333 26.32 74.04 26.32C74.4133 26.32 74.76 26.8 75.08 27.76C75.2933 28.4 75.4 29.0133 75.4 29.6C75.4 33.0133 72.6533 34.72 67.16 34.72C65.6133 34.72 63.5867 34.5333 61.08 34.16C58.5733 33.7867 55.5867 33.2267 52.12 32.48C51.9067 32.8533 51.1067 34.48 49.72 37.36C48.3333 40.24 46.3067 44.3733 43.64 49.76C45.1867 48.8533 48.4667 48.4 53.48 48.4C58.8133 48.4 63.1333 48.9333 66.44 50C66.7067 50.1067 66.84 50.2133 66.84 50.32C66.84 50.48 66.7333 50.56 66.52 50.56C65.9333 50.56 65.0533 50.5067 63.88 50.4C62.76 50.24 61.88 50.16 61.24 50.16C59.3733 50.16 57.5333 50.24 55.72 50.4C53.96 50.56 52.2533 50.7733 50.6 51.04C45.2667 52.0533 42.6 53.68 42.6 55.92C42.6 56.1333 42.6533 56.4267 42.76 56.8C42.92 57.12 43 57.36 43 57.52C42.68 57.52 42.3067 57.1733 41.88 56.48C41.5067 55.7867 41.2933 55.1733 41.24 54.64C39.3733 58.2667 37.56 61.44 35.8 64.16C34.0933 66.88 32.4133 69.1733 30.76 71.04C25.5333 76.9067 20.0667 79.84 14.36 79.84ZM65.9413 71.52C65.3546 71.52 65.0613 71.36 65.0613 71.04C65.0613 69.12 65.8346 66.6667 67.3813 63.68C69.3013 59.9467 70.4213 57.52 70.7413 56.4C71.2746 54.5867 71.5413 52.3467 71.5413 49.68C71.3813 50.2133 71.0346 50.9867 70.5013 52C69.9679 53.0133 69.2479 54.2933 68.3413 55.84C67.4879 57.3333 66.7146 58.5867 66.0213 59.6C65.3813 60.56 64.8479 61.3333 64.4213 61.92C64.4213 61.9733 64.3679 62 64.2613 62C63.9946 62 63.8613 61.8933 63.8613 61.68L66.2613 57.6C67.5946 55.36 68.6613 53.3067 69.4613 51.44C70.2613 49.52 70.8479 47.8133 71.2213 46.32C71.5413 44.9333 72.1813 44.24 73.1413 44.24C74.1013 44.24 74.5813 45.36 74.5813 47.6C74.5813 48.7733 74.4213 50.24 74.1013 52C73.7813 53.76 73.2479 55.7867 72.5013 58.08L69.1413 68.56C71.1146 67.0667 73.0079 65.36 74.8213 63.44C76.6879 61.52 78.3679 59.3067 79.8613 56.8L80.3413 56C80.9279 52.1067 81.6479 49.6533 82.5013 48.64C82.7146 48.2667 83.1946 48.08 83.9413 48.08C85.0613 48.08 85.6213 48.3733 85.6213 48.96C85.6213 50.56 85.1146 52.0267 84.1013 53.36C82.9279 57.36 82.3413 61.2533 82.3413 65.04C82.3413 67.6 83.1413 68.88 84.7413 68.88C85.5413 68.88 86.4746 68.4267 87.5413 67.52C88.6079 66.6133 89.1146 66.16 89.0613 66.16C89.2213 66.16 89.3013 66.32 89.3013 66.64V66.8C87.4879 69.36 85.4613 70.64 83.2213 70.64C80.9279 70.64 79.7813 68.6667 79.7813 64.72C79.7813 63.76 79.8079 62.72 79.8613 61.6C79.9679 60.48 80.0746 59.2533 80.1813 57.92C78.1546 61.76 74.8213 65.4933 70.1813 69.12C69.9146 69.3333 69.5413 69.6267 69.0612 70C68.5813 70.3733 68.0479 70.7733 67.4613 71.2C67.1946 71.4133 66.6879 71.52 65.9413 71.52ZM92.0706 72.24C91.6973 72.24 91.2173 72.08 90.6306 71.76C90.044 71.3867 89.7506 71.04 89.7506 70.72L90.7106 68.56C91.6173 66.48 92.4706 64.4533 93.2706 62.48C94.124 60.4533 94.8173 58.4267 95.3506 56.4C95.884 54.5867 96.1506 52.3467 96.1506 49.68C95.9906 50.2133 95.644 50.9867 95.1106 52C94.5773 53.0133 93.8573 54.2933 92.9506 55.84C92.0973 57.3333 91.324 58.5867 90.6306 59.6C89.9906 60.56 89.4573 61.3333 89.0306 61.92C89.0306 61.9733 88.9773 62 88.8706 62C88.604 62 88.4706 61.8933 88.4706 61.68C88.4706 61.5733 88.4973 61.4933 88.5506 61.44L91.0306 57.52C92.4706 55.2267 93.6173 53.1467 94.4706 51.28C95.324 49.36 95.9373 47.68 96.3106 46.24C96.6306 44.8533 97.164 44.16 97.9106 44.16C98.764 44.16 99.1906 45.2267 99.1906 47.36C99.1906 51.2 97.964 55.92 95.5106 61.52C98.3906 57.8933 100.391 55.4933 101.511 54.32C104.551 51.0667 106.924 49.44 108.631 49.44C110.337 49.44 111.191 50.56 111.191 52.8C111.191 54.3467 110.764 55.7067 109.911 56.88C108.897 58.3733 107.964 59.12 107.111 59.12C106.951 59.12 106.871 59.0133 106.871 58.8C106.871 58.8 107.164 58.1333 107.751 56.8C108.337 55.4667 108.631 54.32 108.631 53.36C108.631 51.92 108.177 51.2 107.271 51.2C105.884 51.2 103.804 52.8267 101.031 56.08C99.8573 57.4133 98.844 58.6667 97.9906 59.84C97.1373 60.96 96.444 61.9733 95.9106 62.88C95.8573 63.04 95.5906 63.68 95.1106 64.8C94.6306 65.92 94.0173 67.5733 93.2706 69.76L92.4706 72.08C92.364 72.1867 92.2306 72.24 92.0706 72.24Z" fill="#212121"/>
</g>
<g filter="url(#filter1_d_427_8)">
<path d="M111.12 82.72C109.04 82.72 107.36 82.1067 106.08 80.88C104.8 79.7067 104.16 78.1067 104.16 76.08C104.16 73.6267 105.04 71.2533 106.8 68.96C106.96 68.7467 107.093 68.64 107.2 68.64C107.36 68.64 107.44 68.7733 107.44 69.04C107.44 69.04 107.36 69.2267 107.2 69.6C107.04 69.92 106.827 70.4267 106.56 71.12C106.027 72.4 105.76 73.6533 105.76 74.88C105.76 76.64 106.293 78.16 107.36 79.44C108.427 80.7733 109.813 81.44 111.52 81.44C118.187 81.44 124.88 78.16 131.6 71.6C137.467 65.7867 142.453 58.5067 146.56 49.76C150.453 41.44 152.4 34.1067 152.4 27.76C152.4 27.4933 152.4 27.2533 152.4 27.04C152.4 26.7733 152.373 26.5333 152.32 26.32C151.36 26.7467 150.027 27.12 148.32 27.44C147.2 32.6133 145.52 38.0533 143.28 43.76C143.6 43.6 143.893 43.52 144.16 43.52C144.693 43.52 144.96 43.8133 144.96 44.4C144.96 45.4667 144.427 46.6667 143.36 48C142.293 49.28 141.227 50.2667 140.16 50.96C136.907 57.8933 133.6 63.5467 130.24 67.92C126.933 72.2933 123.573 75.4133 120.16 77.28C118.507 78.24 116.96 78.72 115.52 78.72C114.987 78.72 114.72 78.5333 114.72 78.16C114.72 77.84 114.987 77.6267 115.52 77.52C116.107 77.4667 117.067 77.2533 118.4 76.88C122.187 75.3867 126.267 71.6533 130.64 65.68C132.187 63.4933 133.68 61.1733 135.12 58.72C136.56 56.2667 137.92 53.68 139.2 50.96C137.92 49.2533 137.28 47.4667 137.28 45.6C137.28 43.5733 137.813 42.56 138.88 42.56C139.787 42.56 140.507 43.4667 141.04 45.28L142.08 44.48C143.2 41.6533 144.187 38.8267 145.04 36C145.893 33.1733 146.613 30.3733 147.2 27.6L136.88 28.8C133.733 29.1733 131.04 29.52 128.8 29.84C126.56 30.16 124.773 30.5067 123.44 30.88C117.093 32.5867 113.92 35.04 113.92 38.24C113.92 40.7467 115.173 43.2533 117.68 45.76C119.92 47.8933 122.373 49.3333 125.04 50.08C125.36 50.1333 125.52 50.2133 125.52 50.32C125.52 50.5333 125.307 50.64 124.88 50.64C121.787 50.64 118.96 49.36 116.4 46.8C113.84 44.1333 112.56 41.28 112.56 38.24C112.56 34.88 115.04 32.0533 120 29.76C123.68 28.0533 128.747 26.64 135.2 25.52C137.333 25.2533 139.44 24.96 141.52 24.64C143.653 24.32 145.787 24 147.92 23.68C148.4 20.3733 148.64 16.4 148.64 11.76C148.64 11.3333 148.8 11.12 149.12 11.12C149.227 11.12 149.333 11.2533 149.44 11.52C149.493 12.0533 149.52 12.6667 149.52 13.36C149.573 14.0533 149.6 14.8 149.6 15.6C149.6 16.8267 149.547 18.1067 149.44 19.44C149.333 20.7733 149.173 22.1333 148.96 23.52C149.707 23.4133 150.373 23.28 150.96 23.12C151.547 22.96 152.027 22.8267 152.4 22.72C152.667 22.2933 153.04 22.08 153.52 22.08C154.16 22.08 154.507 22.64 154.56 23.76C154.613 24.5067 154.693 25.28 154.8 26.08C154.96 26.88 155.173 28.08 155.44 29.68L156.96 37.92C158.08 44.0533 159.253 49.3867 160.48 53.92C161.76 58.4 163.067 62.1067 164.4 65.04C165.52 62.5333 166.72 57.9467 168 51.28C169.92 41.4133 171.52 34.6667 172.8 31.04C175.627 23.2 179.573 17.84 184.64 14.96C186.133 14.1067 187.653 13.68 189.2 13.68C191.76 13.68 194.24 15.1733 196.64 18.16C198.987 20.9867 200.16 23.6533 200.16 26.16C200.16 26.3733 200.08 26.48 199.92 26.48C199.76 26.48 199.6 26.2667 199.44 25.84C198.747 23.6533 197.707 21.7867 196.32 20.24C194.667 18.5867 192.747 17.76 190.56 17.76C189.44 17.76 188.24 18.0533 186.96 18.64C181.947 20.9333 177.867 25.9467 174.72 33.68C173.28 37.3067 171.44 43.8133 169.2 53.2C168.293 57.1467 167.733 59.44 167.52 60.08C167.147 61.36 166.773 62.56 166.4 63.68C166.027 64.7467 165.627 65.7333 165.2 66.64C167.547 71.3867 170.107 73.76 172.88 73.76C174.373 73.76 176.027 73.04 177.84 71.6C179.707 70.16 180.56 69.44 180.4 69.44C180.507 69.44 180.56 69.52 180.56 69.68C180.56 69.9467 180.4 70.24 180.08 70.56C176.88 73.8133 173.707 75.44 170.56 75.44C167.52 75.44 164.773 73.7333 162.32 70.32C161.787 70.6933 161.147 70.88 160.4 70.88C159.28 70.88 158.72 70.5333 158.72 69.84C158.72 69.68 159.013 69.5467 159.6 69.44C160.453 69.28 161.04 69.0933 161.36 68.88C158.907 64.9867 157.12 59.3333 156 51.92C155.893 51.0667 155.68 49.1467 155.36 46.16C155.04 43.1733 154.64 39.0933 154.16 33.92C152.88 41.5467 149.973 49.12 145.44 56.64C140.907 64.32 135.68 70.5333 129.76 75.28C123.627 80.24 117.413 82.72 111.12 82.72ZM196.644 72.32C195.204 72.32 194.084 71.5733 193.284 70.08C192.644 68.8533 192.324 67.44 192.324 65.84C192.324 65.04 192.378 64.16 192.484 63.2C192.644 62.1867 192.858 61.0933 193.124 59.92C189.764 67.3867 186.298 71.12 182.724 71.12C180.538 71.12 179.444 69.7067 179.444 66.88C179.444 62.3467 181.631 57.6533 186.004 52.8C190.431 47.84 194.831 45.36 199.204 45.36C201.284 45.36 202.324 46.2667 202.324 48.08C202.324 50.32 200.831 52.56 197.844 54.8C196.298 58.64 195.524 62.5867 195.524 66.64C195.524 69.68 196.191 71.2 197.524 71.2C199.391 71.2 202.591 67.84 207.124 61.12C207.444 60.6933 207.684 60.48 207.844 60.48C208.004 60.48 208.084 60.5867 208.084 60.8C208.084 61.0667 207.978 61.3333 207.764 61.6C202.964 68.7467 199.258 72.32 196.644 72.32ZM183.044 68.64C186.404 68.64 189.658 64.9067 192.804 57.44C192.378 57.5467 191.978 57.6533 191.604 57.76C191.284 57.8133 190.991 57.84 190.724 57.84C190.511 57.84 190.404 57.76 190.404 57.6C190.404 57.3333 190.778 57.0667 191.524 56.8L194.004 55.36C194.111 54.4533 194.671 53.28 195.684 51.84C196.698 50.3467 197.658 49.6 198.564 49.6C198.884 49.6 199.044 49.84 199.044 50.32C199.044 50.6933 198.911 51.28 198.644 52.08C199.498 50.9067 199.924 49.76 199.924 48.64C199.924 47.4133 199.364 46.8 198.244 46.8C195.578 46.8 192.084 49.44 187.764 54.72C183.444 59.8933 181.284 63.92 181.284 66.8C181.284 68.0267 181.871 68.64 183.044 68.64ZM214.408 73.12C211.741 73.12 210.408 71.4933 210.408 68.24C210.408 65.8933 210.994 62.9867 212.168 59.52C211.954 58.8267 211.581 58.2133 211.048 57.68C210.568 57.0933 209.874 56.6133 208.967 56.24L204.648 54.48C203.954 54.16 203.607 53.6 203.607 52.8C203.607 51.9467 203.981 51.44 204.728 51.28H206.888C209.714 51.28 212.674 50.96 215.768 50.32L215.848 50.16L221.128 38.48L223.448 33.12C223.874 32.16 224.914 31.68 226.568 31.68C227.688 31.68 228.248 31.9467 228.248 32.48C228.248 32.6933 227.261 34.96 225.288 39.28C223.314 43.6533 222.194 45.9733 221.928 46.24L220.568 47.52L219.608 49.44C220.408 49.1733 221.768 48.72 223.688 48.08C225.661 47.3867 228.194 46.5067 231.288 45.44C231.501 45.3867 231.688 45.36 231.848 45.36C232.008 45.3067 232.114 45.28 232.168 45.28C232.381 45.28 232.488 45.3333 232.488 45.44C232.488 46.3467 227.981 48.08 218.968 50.64C217.901 52.72 216.994 54.5067 216.248 56C215.501 57.44 214.941 58.6133 214.568 59.52C213.181 63.04 212.488 66.2133 212.488 69.04C212.488 70.8 213.074 71.68 214.247 71.68C215.688 71.68 217.581 70.6667 219.928 68.64L223.528 65.52C223.688 65.52 223.768 65.6 223.768 65.76C223.768 65.92 223.688 66.16 223.528 66.48C222.674 67.76 221.314 69.12 219.448 70.56C217.261 72.2667 215.581 73.12 214.408 73.12ZM212.488 58.4C212.861 57.3333 213.261 56.24 213.688 55.12C214.168 54 214.674 52.8533 215.208 51.68C213.874 52 212.514 52.2933 211.128 52.56C209.794 52.8267 208.461 53.0667 207.128 53.28C209.901 54.72 211.688 56.4267 212.488 58.4ZM226.629 71.52C226.042 71.52 225.749 71.36 225.749 71.04C225.749 69.12 226.522 66.6667 228.069 63.68C229.989 59.9467 231.109 57.52 231.429 56.4C231.962 54.5867 232.229 52.3467 232.229 49.68C232.069 50.2133 231.722 50.9867 231.189 52C230.655 53.0133 229.935 54.2933 229.029 55.84C228.175 57.3333 227.402 58.5867 226.709 59.6C226.069 60.56 225.535 61.3333 225.109 61.92C225.109 61.9733 225.055 62 224.949 62C224.682 62 224.549 61.8933 224.549 61.68L226.949 57.6C228.282 55.36 229.349 53.3067 230.149 51.44C230.949 49.52 231.535 47.8133 231.909 46.32C232.229 44.9333 232.869 44.24 233.829 44.24C234.789 44.24 235.269 45.36 235.269 47.6C235.269 48.7733 235.109 50.24 234.789 52C234.469 53.76 233.935 55.7867 233.189 58.08L229.829 68.56C231.802 67.0667 233.695 65.36 235.509 63.44C237.375 61.52 239.055 59.3067 240.549 56.8L241.029 56C241.615 52.1067 242.335 49.6533 243.189 48.64C243.402 48.2667 243.882 48.08 244.629 48.08C245.749 48.08 246.309 48.3733 246.309 48.96C246.309 50.56 245.802 52.0267 244.789 53.36C243.615 57.36 243.029 61.2533 243.029 65.04C243.029 67.6 243.829 68.88 245.429 68.88C246.229 68.88 247.162 68.4267 248.229 67.52C249.295 66.6133 249.802 66.16 249.749 66.16C249.909 66.16 249.989 66.32 249.989 66.64V66.8C248.175 69.36 246.149 70.64 243.909 70.64C241.615 70.64 240.469 68.6667 240.469 64.72C240.469 63.76 240.495 62.72 240.549 61.6C240.655 60.48 240.762 59.2533 240.869 57.92C238.842 61.76 235.509 65.4933 230.869 69.12C230.602 69.3333 230.229 69.6267 229.749 70C229.269 70.3733 228.735 70.7733 228.149 71.2C227.882 71.4133 227.375 71.52 226.629 71.52ZM252.758 72.24C252.385 72.24 251.905 72.08 251.318 71.76C250.731 71.3867 250.438 71.04 250.438 70.72L251.398 68.56C252.305 66.48 253.158 64.4533 253.958 62.48C254.811 60.4533 255.505 58.4267 256.038 56.4C256.571 54.5867 256.838 52.3467 256.838 49.68C256.678 50.2133 256.331 50.9867 255.798 52C255.265 53.0133 254.545 54.2933 253.638 55.84C252.785 57.3333 252.011 58.5867 251.318 59.6C250.678 60.56 250.145 61.3333 249.718 61.92C249.718 61.9733 249.665 62 249.558 62C249.291 62 249.158 61.8933 249.158 61.68C249.158 61.5733 249.185 61.4933 249.238 61.44L251.718 57.52C253.158 55.2267 254.305 53.1467 255.158 51.28C256.011 49.36 256.625 47.68 256.998 46.24C257.318 44.8533 257.851 44.16 258.598 44.16C259.451 44.16 259.878 45.2267 259.878 47.36C259.878 51.2 258.651 55.92 256.198 61.52C259.078 57.8933 261.078 55.4933 262.198 54.32C265.238 51.0667 267.611 49.44 269.318 49.44C271.025 49.44 271.878 50.56 271.878 52.8C271.878 54.3467 271.451 55.7067 270.598 56.88C269.585 58.3733 268.651 59.12 267.798 59.12C267.638 59.12 267.558 59.0133 267.558 58.8C267.558 58.8 267.851 58.1333 268.438 56.8C269.025 55.4667 269.318 54.32 269.318 53.36C269.318 51.92 268.865 51.2 267.958 51.2C266.571 51.2 264.491 52.8267 261.718 56.08C260.545 57.4133 259.531 58.6667 258.678 59.84C257.825 60.96 257.131 61.9733 256.598 62.88C256.545 63.04 256.278 63.68 255.798 64.8C255.318 65.92 254.705 67.5733 253.958 69.76L253.158 72.08C253.051 72.1867 252.918 72.24 252.758 72.24ZM279.582 72.72C275.795 72.72 273.902 70.2667 273.902 65.36C273.902 64.6133 273.929 63.8133 273.982 62.96C274.089 62.0533 274.249 61.0933 274.462 60.08C274.249 59.92 274.035 59.7067 273.822 59.44C273.609 59.12 273.395 58.7467 273.182 58.32C273.395 58.3733 273.609 58.48 273.822 58.64C274.089 58.7467 274.409 58.8533 274.782 58.96C275.369 56.2933 276.969 53.6533 279.582 51.04C282.409 48.16 285.075 46.72 287.582 46.72C288.169 46.72 288.462 46.8 288.462 46.96C288.462 47.0667 288.089 47.3333 287.342 47.76C285.369 48.8267 283.502 50.48 281.742 52.72C279.982 55.0133 278.702 57.2533 277.902 59.44L278.062 59.6C280.622 59.6 283.289 58.3733 286.062 55.92C288.835 53.4667 290.222 50.96 290.222 48.4C290.222 47.6 290.009 46.88 289.582 46.24C289.155 45.6 288.569 45.28 287.822 45.28C286.755 45.28 285.555 45.7067 284.222 46.56C282.889 47.36 282.142 47.76 281.982 47.76C281.875 47.76 281.822 47.7333 281.822 47.68C281.822 47.04 282.755 46.3467 284.622 45.6C286.222 44.96 287.475 44.64 288.382 44.64C289.609 44.64 290.622 44.9867 291.422 45.68C292.275 46.3733 292.702 47.3333 292.702 48.56C292.702 51.3867 290.862 54.1333 287.182 56.8C283.875 59.1467 280.675 60.4533 277.582 60.72C277.155 62 276.942 63.2267 276.942 64.4C276.942 68.8267 278.542 71.04 281.742 71.04C284.195 71.04 286.755 69.9733 289.422 67.84C291.662 66.08 293.529 63.9467 295.022 61.44C295.502 60.6933 295.902 60.32 296.222 60.32C296.275 60.32 296.302 60.3733 296.302 60.48C296.302 60.6933 296.089 61.1733 295.662 61.92C294.009 64.5333 291.689 66.9333 288.702 69.12C285.449 71.52 282.409 72.72 279.582 72.72Z" fill="#46DA39"/>
</g>
<defs>
<filter id="filter0_d_427_8" x="0.76001" y="17.36" width="114.431" height="70.48" filterUnits="userSpaceOnUse" color-interpolation-filters="sRGB">
<feFlood flood-opacity="0" result="BackgroundImageFix"/>
<feColorMatrix in="SourceAlpha" type="matrix" values="0 0 0 0 0 0 0 0 0 0 0 0 0 0 0 0 0 0 127 0" result="hardAlpha"/>
<feOffset dy="4"/>
<feGaussianBlur stdDeviation="2"/>
<feComposite in2="hardAlpha" operator="out"/>
<feColorMatrix type="matrix" values="0 0 0 0 0 0 0 0 0 0 0 0 0 0 0 0 0 0 0.3 0"/>
<feBlend mode="normal" in2="BackgroundImageFix" result="effect1_dropShadow_427_8"/>
<feBlend mode="normal" in="SourceGraphic" in2="effect1_dropShadow_427_8" result="shape"/>
</filter>
<filter id="filter1_d_427_8" x="100.16" y="11.12" width="200.142" height="79.6" filterUnits="userSpaceOnUse" color-interpolation-filters="sRGB">
<feFlood flood-opacity="0" result="BackgroundImageFix"/>
<feColorMatrix in="SourceAlpha" type="matrix" values="0 0 0 0 0 0 0 0 0 0 0 0 0 0 0 0 0 0 127 0" result="hardAlpha"/>
<feOffset dy="4"/>
<feGaussianBlur stdDeviation="2"/>
<feComposite in2="hardAlpha" operator="out"/>
<feColorMatrix type="matrix" values="0 0 0 0 0 0 0 0 0 0 0 0 0 0 0 0 0 0 0.3 0"/>
<feBlend mode="normal" in2="BackgroundImageFix" result="effect1_dropShadow_427_8"/>
<feBlend mode="normal" in="SourceGraphic" in2="effect1_dropShadow_427_8" result="shape"/>
</filter>
</defs>
</svg>
